<svg width="40" height="40" viewBox="0 0 40 40" fill="none" xmlns="http://www.w3.org/2000/svg">
<path d="M16.3135 13.8135C16.5087 13.6182 16.8252 13.6182 17.0205 13.8135C17.2154 14.0088 17.2156 14.3254 17.0205 14.5205L11.541 20L17.0205 25.4805C17.2152 25.6758 17.2156 25.9924 17.0205 26.1875C16.8254 26.3824 16.5087 26.3822 16.3135 26.1875L10.4805 20.3535C10.2852 20.1583 10.2852 19.8417 10.4805 19.6465L16.3135 13.8135ZM22.9805 13.8135C23.1757 13.6184 23.4923 13.6183 23.6875 13.8135L29.5205 19.6465C29.7154 19.8417 29.7155 20.1584 29.5205 20.3535L23.6875 26.1875C23.4925 26.3825 23.1758 26.3821 22.9805 26.1875C22.7852 25.9922 22.7852 25.6757 22.9805 25.4805L28.4609 20L22.9805 14.5205C22.7852 14.3252 22.7852 14.0087 22.9805 13.8135Z" fill="white" fill-opacity="0.5"/>
</svg>
