<svg width="40" height="40" viewBox="0 0 40 40" fill="none" xmlns="http://www.w3.org/2000/svg">
<path fill-rule="evenodd" clip-rule="evenodd" d="M9.99967 19.9998C9.99967 19.8898 10.0897 19.4032 10.5213 18.6248C11.0191 17.7482 11.6487 16.9534 12.388 16.2682C14.0713 14.6932 16.593 13.3332 19.9997 13.3332C23.408 13.3332 25.9297 14.6932 27.6097 16.2665C28.4563 17.0615 29.0763 17.8998 29.478 18.6248C29.908 19.4032 29.9997 19.8915 29.9997 19.9998C29.9997 20.1098 29.908 20.5965 29.478 21.3748C29.078 22.0998 28.4563 22.9382 27.6113 23.7315C25.928 25.3065 23.4063 26.6665 19.9997 26.6665C16.5913 26.6665 14.0697 25.3065 12.3897 23.7332C11.6496 23.0476 11.0195 22.2521 10.5213 21.3748C10.0913 20.5965 9.99967 20.1082 9.99967 19.9998ZM8.33301 19.9998C8.33301 17.9165 12.2213 11.6665 19.9997 11.6665C27.778 11.6665 31.6663 17.9165 31.6663 19.9998C31.6663 22.0832 27.778 28.3332 19.9997 28.3332C12.2213 28.3332 8.33301 22.0832 8.33301 19.9998ZM21.6663 19.9998C21.6663 20.4419 21.4907 20.8658 21.1782 21.1783C20.8656 21.4909 20.4417 21.6665 19.9997 21.6665C19.5576 21.6665 19.1337 21.4909 18.8212 21.1783C18.5086 20.8658 18.333 20.4419 18.333 19.9998C18.333 19.5578 18.5086 19.1339 18.8212 18.8213C19.1337 18.5088 19.5576 18.3332 19.9997 18.3332C20.4417 18.3332 20.8656 18.5088 21.1782 18.8213C21.4907 19.1339 21.6663 19.5578 21.6663 19.9998ZM23.333 19.9998C23.333 20.8839 22.9818 21.7317 22.3567 22.3569C21.7316 22.982 20.8837 23.3332 19.9997 23.3332C19.1156 23.3332 18.2678 22.982 17.6427 22.3569C17.0175 21.7317 16.6663 20.8839 16.6663 19.9998C16.6663 19.1158 17.0175 18.2679 17.6427 17.6428C18.2678 17.0177 19.1156 16.6665 19.9997 16.6665C20.8837 16.6665 21.7316 17.0177 22.3567 17.6428C22.9818 18.2679 23.333 19.1158 23.333 19.9998Z" fill="black"/>
</svg>
